# xmcd
#
# Track frame offsets:
#	150
#	10447
#	27095
#	40885
#	53979
#	75100
#	92522
#
# Disc length: 1458 seconds
# Revision: 0
# Processed by: cddbd v1.5.2PL0 Copyright (c) Steve Scherf et al.
# Submitted via: dBpowerAMP V12.0
#
DISCID=4305b007
DTITLE=Ayla Brown - Heroes and Hometowns
DYEAR=2012
DGENRE=Country
TTITLE0=Star Spangled Banner
TTITLE1=Pride Of America
TTITLE2=When The War Is Over
TTITLE3=My Hometown
TTITLE4=It's Just A Little Rain
TTITLE5=Hero In Her Hometown
TTITLE6=Fly Away
EXTD=
EXTT0=
EXTT1=
EXTT2=
EXTT3=
EXTT4=
EXTT5=
EXTT6=
PLAYORDER=
